<svg viewBox="0 0 137 46" xmlns="http://www.w3.org/2000/svg" version="1.1">
    <path d="M32.834 13.708V31.49a.682.682 0 01-.253.529L15.568 45.842C15 46 15 46 14.428 45.312V14.395c0-.379.311-.686.696-.686h17.71z" fill="white" />
    <path d="M32.834 13.708h-17.75c-.416 0-.81.183-1.075.498L.161 30.695c-.375.446-.054 1.121.535 1.123l31.438.108c.386.001.7-.306.7-.686V13.708zM50.744 11.6c1.216 0 2.208-1.024 2.208-2.208a2.212 2.212 0 00-2.208-2.208 2.212 2.212 0 00-2.208 2.208c0 1.184.992 2.208 2.208 2.208zM49.016 30h3.456V14h-3.456v16zm20.14-16v2.304c-1.215-1.696-3.103-2.72-5.6-2.72-4.351 0-7.967 3.68-7.967 8.416 0 4.768 3.616 8.416 7.968 8.416 2.496 0 4.384-1.024 5.6-2.688V36.4h3.456V14h-3.456zm-5.055 13.12c-2.88 0-5.056-2.144-5.056-5.12s2.176-5.12 5.056-5.12 5.056 2.144 5.056 5.12-2.176 5.12-5.056 5.12zM96.673 7.6v8.672c-1.216-1.664-3.104-2.688-5.6-2.688-4.352 0-7.968 3.648-7.968 8.416 0 4.736 3.616 8.416 7.968 8.416 2.496 0 4.384-1.024 5.6-2.72V30h3.456V7.6h-3.456zm-5.056 19.52c-2.88 0-5.056-2.144-5.056-5.12s2.176-5.12 5.056-5.12 5.056 2.144 5.056 5.12-2.176 5.12-5.056 5.12zm15.26-3.648h12.736c.064-.448.128-.96.128-1.44 0-4.608-3.264-8.448-8.032-8.448-5.024 0-8.448 3.68-8.448 8.416 0 4.8 3.424 8.416 8.704 8.416 3.136 0 5.536-1.312 7.008-3.488l-2.848-1.664c-.768 1.12-2.208 1.984-4.128 1.984-2.56 0-4.576-1.28-5.12-3.776zm-.032-2.816c.48-2.4 2.24-3.936 4.832-3.936 2.08 0 4.096 1.184 4.576 3.936h-9.408zM133.005 14l-4.448 12.16-4.48-12.16h-3.776l6.24 16h4l6.24-16h-3.776z" fill="white" />
</svg>